<?xml version="1.0" standalone="no"?> <!DOCTYPE svg PUBLIC "-//W3C//DTD SVG 1.0//EN" "http://www.w3.org/TR/2001/REC-SVG-20010904/DTD/svg10.dtd" > <svg xmlns="http://www.w3.org/2000/svg" width="100%" height="100%">
<defs >
<font id="ajensonproregular" horiz-adv-x="775" ><font-face
    font-family="Adobe Jenson Pro"
    units-per-em="2048"
    panose-1="2 10 5 3 5 2 1 3 2 3"
    ascent="1474"
    descent="-574"
    alphabetic="0" />
<missing-glyph horiz-adv-x="1024" d="M0 0V1434H1024V0H0ZM512 809L860 1331H164L512 809ZM573 717L922 195V1239L573 717ZM164 102H860L512 625L164 102ZM102 1239V195L451 717L102 1239Z" />
<glyph unicode=" " glyph-name="space" horiz-adv-x="440" />
<glyph unicode="!" glyph-name="exclam" horiz-adv-x="540" d="M332 1286H334Q343 1286 350 1274Q398 1205 436 1165Q451 1154 451 1143Q451 1124 440 1104Q413 1027 387 852Q379 797 362 626T344 449Q344 427 334 424Q314 414 293 414Q285 414 283 416T281 428Q281
514 262 803Q245 1041 207 1104Q195 1128 195 1141Q195 1146 201 1155Q230 1183 243 1197T273 1232T303 1276Q313 1286 332 1286ZM160 143V145Q160 151 174 158Q190 165 227 176Q247 184 257 198T279 250Q282 260 301 270T328 281Q344 281 352 254Q374 180 426
162Q443 156 449 147T459 115Q460 107 456 103T440 94Q393 75 378 57T346 -16Q343 -31 324 -27Q302 -26 291 -13T268 29Q264 38 260 44T250 57T240 67T227 75T214 82T199 90T182 98Q174 101 167 116T160 143Z" />
<glyph unicode="&quot;" glyph-name="quotedbl" horiz-adv-x="567" d="M195 1427H197Q225 1427 225 1393Q225 1339 203 1223T158 1024Q156 1015 98 997Q88 995 84 998T80 1016Q80 1240 61 1366Q61 1380 104 1403Q165 1427 195 1427ZM475 1427H477Q489 1427 496
1418T504 1393Q504 1344 483 1234T436 1036Q433 1027 422 1020T375 999Q358 990 358 1012Q358 1236 340 1368Q340 1382 383 1403Q453 1427 475 1427Z" />
<glyph unicode="#" glyph-name="numbersign" horiz-adv-x="1003" d="M326 813H109Q98 813 112 856Q115 864 119 874Q125 910 132 918T166 926L356 924L426 1235Q428 1247 449 1247Q491 1247 524 1237L451 924L670 922L745 1239Q803 1239 819 1235Q845 1228 838
1200L766 922H918Q931 922 934 913T930 868Q922 832 915 822T897 811H735L676 543H838Q869 543 872 528Q874 510 864 472T846 430H645L573 63Q564 60 531 62T485 68Q471 77 479 104L553 434H332L250 86Q241 80 209 76T158 74Q152 74 150 83T150 102L236 436H63Q50
436 59 512Q58 534 61 540T74 547L262 543L326 813ZM416 813L354 543H582L641 813H416Z" />
<glyph unicode="$" glyph-name="dollar" horiz-adv-x="1003" d="M602 1198L567 737Q674 695 737 661T844 584Q940 489 940 358Q940 256 896 181T774 63Q730 39 657 22T520 0L506 -209Q506 -219 504 -223T489 -231Q461 -244 434 -244Q412 -244 416 -203Q417 -185
420 -148T425 -74T430 0Q344 2 225 25Q207 30 188 23L152 -2Q136 -14 127 -14Q116 -14 109 -2Q99 12 96 63Q94 153 63 344Q57 359 70 362Q84 369 115 369Q128 369 133 344Q149 282 186 225Q228 165 292 123T436 68Q459 317 477 596Q261 678 182 772Q155 805 136
855T117 944Q117 1131 272 1212Q309 1231 379 1251T524 1272Q527 1334 532 1464Q532 1480 539 1483Q560 1496 600 1462Q622 1440 618 1415Q618 1408 608 1270Q629 1270 721 1262Q748 1255 772 1255Q793 1255 821 1292Q858 1296 862 1288Q856 1134 881 997Q885 985
877 973Q874 972 866 967T848 958T831 952Q823 952 821 965Q818 974 811 997T800 1030T788 1059T774 1089T756 1115T733 1139Q681 1183 602 1198ZM272 1006V1004Q272 927 322 874Q347 846 383 824T489 772Q489 776 518 1204Q412 1204 342 1152T272 1006ZM780 328V330Q780
418 688 487Q643 520 557 561Q554 522 542 337T524 66Q641 72 710 144T780 328Z" />
<glyph unicode="%" glyph-name="percent" horiz-adv-x="1427" d="M641 981V979Q641 874 611 807T545 707Q510 671 444 635T336 598Q226 598 156 678T86 909Q86 1083 193 1196Q224 1228 288 1259T397 1290Q463 1290 512 1263T589 1189T628 1091T641 981ZM371 682H373Q417
682 449 711Q461 720 472 741T495 814T506 936Q506 1082 463 1147T348 1212Q300 1212 270 1178Q217 1123 217 979Q217 907 228 852T255 765T294 715T334 689T371 682ZM1102 1319H1104Q1107 1319 1131 1301T1165 1272Q648 473 348 -47Q340 -61 328 -61Q319 -61 292
-38T262 -6L1073 1294Q1087 1319 1102 1319ZM1028 -27H1026Q961 -27 912 0T836 72T796 170T782 281Q782 463 895 571Q935 606 996 634T1104 662Q1202 662 1271 582T1341 360Q1341 174 1245 78Q1201 36 1143 5T1028 -27ZM1081 51H1083Q1119 51 1151 90Q1169 109
1188 172T1208 305Q1208 350 1206 383T1194 456T1169 522T1122 566T1049 584Q988 584 952 516T915 315Q915 245 931 193T968 114T1015 73T1056 54T1081 51Z" />
<glyph unicode="&amp;" glyph-name="ampersand" horiz-adv-x="1542" d="M584 1274H586Q632 1274 678 1254T756 1202Q831 1119 831 999Q831 957 816 915T786 856Q702 775 686 758Q671 742 690 731Q745 699 807 634T922 485Q937 467 952 485Q1047 609 1121 754T1196
946Q1196 962 1184 971T1133 999Q1142 1029 1161 1053Q1169 1057 1180 1053Q1237 1036 1319 1036Q1405 1036 1450 1051Q1452 1051 1456 1046T1462 1036Q1464 1027 1464 1001T1462 969Q1408 970 1386 964T1354 944Q1307 895 1151 649Q1122 604 1096 566T1037 483T987
412Q971 384 977 367Q1000 314 1024 274T1082 195T1161 136T1260 115Q1368 115 1403 250Q1410 261 1438 252Q1443 250 1452 237T1458 217Q1424 110 1351 38T1178 -35Q1122 -35 1074 -15T986 47T917 129T852 229Q745 83 643 20Q617 2 570 -11T483 -25Q448 -25 421
-23T354 -11T275 22T199 80Q94 180 94 334Q94 404 121 466T186 571Q235 623 360 719Q371 726 352 745Q321 774 296 824T270 932Q270 1058 358 1147Q414 1197 477 1241Q527 1274 584 1274ZM528 1161H526Q453 1161 420 1122Q379 1086 379 1022Q379 949 418 899Q452
853 508 824T604 795Q622 795 643 806T680 836Q711 876 711 930Q711 996 692 1044T642 1116T584 1150T528 1161ZM438 676H436Q412 676 395 662Q331 622 288 554T244 412Q244 305 301 223Q341 172 399 147T520 121Q620 121 709 182Q758 213 815 291Q824 303 817
330Q752 489 602 602Q561 635 513 655T438 676Z" />
<glyph unicode="&apos;" glyph-name="quotesingle" horiz-adv-x="288" d="M195 1427H197Q225 1427 225 1393Q225 1339 203 1223T158 1024Q156 1015 98 997Q88 995 84 998T80 1016Q80 1240 61 1366Q61 1380 104 1403Q165 1427 195 1427Z" />
<glyph unicode="(" glyph-name="parenleft" horiz-adv-x="686" d="M590 1421V1419Q590 1409 571 1391Q514 1334 461 1255T355 1063T270 801T238 487Q238 340 264 206T334 -28T426 -201T528 -326Q553 -353 567 -362Q577 -371 569 -395Q556 -432 541 -449Q532 -458
510 -453Q451 -428 372 -330T233 -94Q183 25 155 167T127 440Q127 788 254 1069Q316 1202 395 1307T547 1473Q565 1485 580 1470Q590 1457 590 1421Z" />
<glyph unicode=")" glyph-name="parenright" horiz-adv-x="686" d="M528 567V565Q528 388 497 228T411 -56T299 -270T174 -438Q153 -467 137 -467Q128 -467 114 -455T94 -432Q88 -421 98 -408Q229 -239 307 -45Q416 212 416 561Q416 746 372 908T265 1174T127
1346Q98 1375 98 1393Q98 1419 117 1458Q129 1483 160 1460Q226 1419 290 1335T408 1137T495 872T528 567Z" />
<glyph unicode="*" glyph-name="asterisk" horiz-adv-x="808" d="M88 1165V1167Q88 1176 118 1216T156 1257Q161 1258 197 1235T300 1166T373 1116Q377 1113 382 1117T385 1126Q369 1376 369 1389Q369 1399 385 1405Q407 1408 436 1404T481 1393Q503 1386 494
1358Q469 1249 453 1126Q450 1110 461 1110Q488 1123 563 1163T676 1221Q682 1214 700 1183T727 1133Q730 1125 729 1119T724 1108T719 1104Q693 1095 603 1074T483 1044Q469 1041 479 1034Q494 1013 521 981T584 906T639 840Q651 825 648 815T627 786Q590 757
549 748Q493 842 406 1008Q356 938 225 774Q211 772 185 789T129 842Q128 846 130 854T135 864Q157 887 242 957T340 1038Q344 1041 344 1046T340 1051Q315 1064 221 1101T104 1151Q88 1162 88 1165Z" />
<glyph unicode="+" glyph-name="plus" horiz-adv-x="1343" d="M614 397H172Q168 429 168 464T170 504H614L616 930Q616 958 629 958H715Q728 958 731 952T735 926L731 504H1151Q1167 504 1171 500T1176 481V418Q1176 408 1158 403T1120 397H731L735 -78Q735 -86
730 -93T719 -100Q700 -100 663 -92T616 -78L614 397Z" />
<glyph unicode="," glyph-name="comma" horiz-adv-x="450" d="M260 283H262Q282 283 315 247T348 162Q348 56 271 -51T94 -217Q66 -231 47 -231Q29 -231 29 -219Q29 -203 51 -176Q176 -57 176 45Q176 101 117 141Q111 144 111 162T117 184Q145 197 178 223T229
268Q247 283 260 283Z" />
<glyph unicode="-" glyph-name="hyphen" horiz-adv-x="667" d="M102 340V342Q102 370 114 393T145 426Q164 439 242 467T418 528T528 565Q543 570 575 549Q581 547 578 522Q556 453 546 435T522 412Q513 409 340 370T117 317Q109 316 106 321T102 340Z" />
<glyph unicode="." glyph-name="period" horiz-adv-x="450" d="M258 287H260Q268 287 281 238Q291 203 304 190T360 160Q385 153 385 119Q385 101 373 98Q317 84 303 68T268 -23Q265 -35 240 -35Q220 -35 210 -21T179 39Q175 49 172 55Q166 72 154 81T106 104Q78
117 78 139Q78 151 90 162T117 176Q158 184 172 196T203 256Q208 270 223 278T258 287Z" />
<glyph unicode="/" glyph-name="slash" horiz-adv-x="888" d="M692 1415H694Q713 1415 745 1398T786 1366Q519 702 225 -121Q210 -172 193 -172Q186 -172 155 -154T106 -123L666 1380Q677 1415 692 1415Z" />
<glyph unicode="0" glyph-name="zero" horiz-adv-x="1003" d="M537 1307H539Q623 1307 699 1267T825 1147Q932 978 932 657Q932 253 764 94Q709 41 635 8T483 -25Q297 -25 188 139Q143 213 109 331T74 606Q74 960 205 1135Q295 1259 432 1292Q498 1307 537 1307ZM500
1233H498Q431 1233 377 1184Q330 1139 292 1016T254 674Q254 454 292 316T391 119Q451 53 520 53Q592 53 643 102Q685 142 719 270T752 610Q750 815 727 953T635 1171Q584 1233 500 1233Z" />
<glyph unicode="1" glyph-name="one" horiz-adv-x="1003" d="M444 573L440 1100Q440 1124 416 1120Q251 1096 215 1098Q205 1105 197 1116T188 1133T191 1141T205 1149Q365 1195 592 1309Q596 1311 602 1311Q607 1311 612 1308T618 1300Q618 1200 617 920T616
489Q616 190 629 119Q631 105 637 98T671 83T744 72T879 63Q875 20 871 10T852 0L629 2Q564 2 412 -4T184 -10Q170 -10 166 -8T162 2Q169 32 173 39T186 49Q232 53 385 74Q413 78 422 89T434 127Q447 211 444 573Z" />
<glyph unicode="2" glyph-name="two" horiz-adv-x="1003" d="M500 1311H502Q658 1311 764 1202Q812 1151 837 1080T862 944Q862 783 737 627Q595 448 293 152Q287 148 290 142T299 135Q361 135 563 138T795 143Q827 145 848 169T903 276Q909 293 922 285Q933 278
961 252Q975 242 967 223Q934 150 858 6Q847 -10 827 -10Q793 -10 367 -2Q299 0 92 0Q85 0 79 6T76 18Q95 69 111 92T154 139Q158 143 204 184T296 267T407 379T524 516Q686 723 686 918Q686 1030 626 1097T446 1165Q262 1165 150 942Q142 933 117 950Q92 970 94
979Q133 1097 213 1182Q263 1235 336 1273T500 1311Z" />
<glyph unicode="3" glyph-name="three" horiz-adv-x="1003" d="M96 10L119 37Q171 29 248 29Q360 30 456 68T606 168Q690 264 690 399Q690 490 627 555Q552 616 436 616Q340 616 252 580Q245 580 241 587T236 600Q240 618 260 645T291 678Q404 719 458 746T561
813Q600 846 619 890T639 975Q639 1065 581 1118T418 1171Q272 1171 152 1001Q149 997 129 1013T109 1034Q109 1045 129 1075Q236 1233 350 1282Q417 1311 496 1311Q626 1311 721 1219Q791 1150 791 1026Q791 936 729 874Q663 815 588 760Q585 756 587 746T594
735Q764 679 829 571Q874 514 874 416Q874 289 802 193T623 35Q476 -49 289 -49Q225 -49 174 -38T104 -14Q90 -7 96 10Z" />
<glyph unicode="4" glyph-name="four" horiz-adv-x="1003" d="M768 406L766 -14Q766 -30 752 -35Q682 -41 592 -41Q578 -41 578 -12Q578 78 592 393Q592 406 578 406Q563 404 388 400T127 395H43Q20 398 20 414Q20 420 26 437T42 476T53 500Q105 588 244 776T535
1149Q643 1273 700 1300Q729 1317 750 1317Q761 1317 764 1294T768 1210L772 514Q825 515 870 516T937 517T973 518Q977 517 976 501T967 444Q961 410 942 410Q830 410 768 406ZM618 1094V1096Q618 1128 611 1125Q609 1125 608 1122Q501 992 382 827T180 524Q174
515 178 507T190 498Q344 498 594 508Q596 552 602 696T613 961T618 1094Z" />
<glyph unicode="5" glyph-name="five" horiz-adv-x="1003" d="M883 461V459Q883 364 848 282T752 141T612 40T440 -25Q336 -49 233 -49Q147 -49 115 -33Q103 -25 109 -14Q117 -2 129 10Q134 18 164 23Q419 40 561 143Q707 253 707 408Q707 523 620 595T399 668Q295
668 137 616Q130 614 123 619T115 633Q115 702 137 795Q154 897 190 1029T258 1245Q275 1286 293 1300Q307 1312 326 1309Q377 1295 498 1285T709 1274Q730 1274 743 1282Q770 1294 840 1348Q850 1362 858 1358Q886 1322 868 1290Q849 1260 801 1209T725 1145Q699
1130 668 1130Q625 1130 501 1133T356 1139Q333 1139 322 1108Q298 1059 268 952T219 743Q216 731 221 724T244 723Q473 797 520 797Q584 797 643 778T741 729Q811 678 847 608T883 461Z" />
<glyph unicode="6" glyph-name="six" horiz-adv-x="1003" d="M66 498V500Q66 921 395 1180Q486 1251 607 1296T827 1341Q847 1341 863 1325T887 1294Q888 1291 885 1288T877 1284Q745 1264 616 1196T403 1016Q341 935 308 836T274 690Q286 694 386 741T522 803Q559
815 586 815Q653 815 719 785T836 702Q881 654 908 581T936 428Q936 313 892 230T788 100Q732 52 640 14T477 -25Q332 -25 221 72Q152 135 109 247T66 498ZM541 61H543Q614 61 670 102Q706 129 742 196T778 360Q778 485 713 571Q621 692 485 692Q401 692 264 612Q246
588 246 528Q246 400 277 302T354 154Q393 110 442 86T541 61Z" />
<glyph unicode="7" glyph-name="seven" horiz-adv-x="1003" d="M324 -39H322Q275 -39 248 -16Q222 5 236 49Q261 113 442 438Q459 469 506 552T574 675T635 786T697 903T749 1005T797 1106Q797 1134 793 1137Q765 1145 510 1145Q429 1145 381 1143T297 1137T239
1124T205 1102T176 1067Q139 1013 111 930Q105 919 90 928Q62 945 55 955T51 979Q146 1255 158 1282Q164 1298 180 1298Q184 1298 210 1294T254 1288Q359 1282 582 1282Q844 1282 936 1292Q949 1295 952 1282Q956 1230 940 1202Q595 546 449 195Q392 53 377 -8Q377
-22 361 -30T324 -39Z" />
<glyph unicode="8" glyph-name="eight" horiz-adv-x="1003" d="M537 1317H539Q689 1317 779 1228T870 1010Q870 888 795 823Q768 797 710 750T639 692Q784 622 853 541T922 338Q922 256 884 187T782 72Q719 26 637 -2T477 -31Q298 -31 184 74Q134 116 109 179T84
309T131 449Q136 457 144 466T167 488T193 511T227 539T263 568T307 602T352 637Q139 763 139 950Q139 1080 207 1157Q274 1231 375 1278Q457 1317 537 1317ZM489 1237H487Q407 1237 348 1184Q287 1126 287 1018Q287 927 346 860T502 752Q553 730 584 739Q638 761
680 827T723 979Q723 1088 655 1165Q589 1237 489 1237ZM530 51H532Q628 51 695 110T762 285Q762 378 688 453Q619 525 475 586Q430 601 408 592Q348 558 300 484T252 330Q252 246 296 180T403 83T530 51Z" />
<glyph unicode="9" glyph-name="nine" horiz-adv-x="1003" d="M510 1311H512Q660 1311 774 1200Q924 1060 924 739Q924 430 748 209Q648 85 508 18T260 -49Q222 -49 164 -41Q149 -41 158 -10Q162 -1 164 0T172 2Q214 8 267 23T404 84T551 195Q624 271 667 359T733
575Q668 548 560 513T428 477Q390 477 343 491T262 526Q178 575 126 660T74 854Q74 1082 252 1208Q397 1311 510 1311ZM440 1223H438Q403 1223 368 1208T313 1171Q282 1141 259 1079T236 946Q236 860 270 786T360 662Q439 594 545 594Q583 594 638 609T725 645Q739
656 743 700Q749 729 744 807T725 950Q693 1079 622 1151T440 1223Z" />
<glyph unicode=":" glyph-name="colon" horiz-adv-x="509" d="M285 807H287Q301 807 305 788Q321 737 334 724T406 692Q419 688 422 680T422 651Q416 634 403 627Q347 601 334 585T303 508Q296 494 279 494Q266 494 252 502T233 522Q219 570 204 589T150 623Q117
634 117 668Q117 688 127 688Q175 701 196 717T231 768Q248 807 285 807ZM291 283H293Q298 283 306 251Q309 240 311 233Q321 199 334 187T391 158Q414 149 414 117Q414 99 403 96Q348 82 334 66T299 -25Q296 -35 270 -35Q250 -35 239 -17T205 55Q199 70 186 79T139
102Q125 108 118 119T113 137Q113 148 125 159T150 174Q192 182 205 194T236 252Q246 283 291 283Z" />
<glyph unicode=";" glyph-name="semicolon" horiz-adv-x="509" d="M276 807H279Q294 807 299 791Q313 742 326 728T395 696Q408 690 411 683T410 657Q401 636 393 633Q338 607 325 591T297 516Q291 504 272 504Q259 504 246 511T229 530Q213 578 198 596T145 627Q115
639 115 672Q115 688 127 692Q172 703 193 719T227 770Q245 807 276 807ZM291 274H293Q313 274 346 238T379 154Q379 48 302 -58T125 -225Q96 -240 78 -240Q59 -240 59 -225Q59 -212 82 -184Q207 -59 207 39Q207 92 147 133Q141 136 141 154T147 176Q201 201 260
260Q274 274 291 274Z" />
<glyph unicode="&lt;" glyph-name="less" horiz-adv-x="1290" d="M356 483L381 469Q490 397 1063 100Q1081 91 1073 68L1055 2Q1052 -15 1045 -18T1020 -10L242 424Q224 432 207 445T190 469Q190 475 192 480T197 491T205 501T215 510T226 519T237 527T247 533T256
539Q738 819 1047 961Q1059 967 1067 965T1077 956L1104 862Q651 659 356 483Z" />
<glyph unicode="=" glyph-name="equal" horiz-adv-x="1343" d="M182 618L178 674Q177 689 178 693T186 698L1163 700Q1163 600 1143 598Q1120 594 1020 594H217Q198 594 191 598T182 618ZM1083 205H209Q190 205 188 215Q180 234 180 309L1167 311L1159 229Q1156
213 1144 209T1083 205Z" />
<glyph unicode="&gt;" glyph-name="greater" horiz-adv-x="1290" d="M213 877L233 932Q245 964 260 954L897 594L1071 494Q1084 482 1081 465Q1078 452 1029 419T940 362L238 -33Q215 25 211 68Q208 81 227 88Q231 91 337 147T615 297T922 465Q659 626 227 850Q210
862 213 877Z" />
<glyph unicode="?" glyph-name="question" horiz-adv-x="694" d="M412 1223H414Q464 1223 509 1194T582 1121T626 1030T643 944Q643 804 590 692Q537 577 434 571Q346 563 313 563Q270 563 259 534T256 412Q242 406 223 387Q211 383 209 383T205 395Q196 423 182
500T168 627Q168 646 200 690T242 735H324Q390 735 440 746T527 790T563 874Q563 963 511 1004T352 1047Q339 1047 318 1068T297 1108Q297 1152 333 1187T412 1223ZM291 272H293Q333 272 348 238Q357 213 368 199T403 174Q424 168 431 161T440 139Q444 119 440
113T412 92Q385 78 370 59T346 4Q342 -10 325 -18T291 -27Q277 -27 266 -2Q250 56 207 78Q177 92 162 117Q153 134 154 141T170 158Q218 178 236 194T264 236Q273 272 291 272Z" />
<glyph unicode="@" glyph-name="at" horiz-adv-x="1740" d="M535 209V211Q535 308 572 401T659 561Q701 615 784 681T940 786Q990 813 1024 813Q1067 813 1120 797Q1178 813 1225 813Q1117 466 1098 147Q1095 113 1105 98T1145 82Q1250 82 1338 150T1477 330T1528
569Q1526 807 1378 944T967 1081Q826 1081 689 1023T467 870Q370 767 315 613T260 291Q261 116 334 -26T545 -253T862 -338Q1021 -338 1192 -254Q1199 -251 1205 -256T1212 -266Q1212 -308 1202 -315Q1135 -366 1024 -397T799 -428Q657 -428 535 -381T320 -244T174
-17T119 293Q118 536 228 721T524 1024Q745 1163 1016 1163Q1151 1163 1265 1120T1457 1000T1581 819T1628 592Q1629 476 1596 376T1506 204T1372 83T1211 8T1036 -14Q1005 -12 982 3T958 49Q958 77 997 301Q988 292 908 203T762 49T676 -16Q630 -16 583 41T535
209ZM743 147H745Q780 147 859 233T973 383Q995 424 1022 513T1061 684Q1025 705 971 705Q873 705 795 606Q745 539 716 449T686 274Q686 147 743 147Z" />
<glyph unicode="A" glyph-name="A" horiz-adv-x="1456" d="M756 1366H758Q768 1366 772 1360T782 1335Q804 1265 827 1198T865 1090T910 969T958 842Q1023 661 1217 209Q1251 132 1286 101T1405 53Q1407 53 1405 39T1398 10T1389 -8Q1219 -6 1110 -6Q1082 -6 1050
-8T997 -11T969 -12Q957 -12 954 -6Q951 4 947 24T944 47Q1024 69 1040 89T1038 170Q1022 234 936 442Q924 473 901 473Q620 473 459 465Q440 463 430 455T408 422Q386 378 353 281T319 147Q319 113 341 96T438 55Q440 46 434 24T422 -2Q322 0 162 0H86Q75 0 72
6Q66 15 62 36T61 63Q120 80 148 111T218 224Q223 233 225 238Q251 288 323 458T497 875T635 1208Q666 1286 682 1331Q684 1342 694 1348Q730 1366 756 1366ZM506 559H508Q511 559 529 558T580 556T655 555Q754 555 864 559Q874 559 879 569T881 588Q852 666 815
769T751 944T696 1090Q693 1096 685 1094T672 1081Q572 851 469 582Q467 574 477 567T506 559Z" />
<glyph unicode="B" glyph-name="B" horiz-adv-x="1224" d="M225 506V821Q225 1100 221 1165Q220 1192 213 1204T179 1230T88 1264L109 1319Q140 1319 242 1325Q476 1339 551 1339Q735 1339 856 1290Q920 1264 974 1202T1028 1055Q1028 982 1005 927T924 829Q889
804 817 766Q810 761 812 753T823 743Q881 732 935 705T1035 635T1109 527T1137 385Q1137 253 1056 163T838 23Q750 -8 616 -8Q606 -8 472 -4T289 0Q237 0 174 -5T106 -10Q103 -10 97 14T92 41Q95 44 156 76Q196 95 205 113T217 188Q225 391 225 506ZM840 1012V1014Q840
1118 760 1198Q683 1272 547 1272Q494 1272 446 1255Q429 1252 423 1247T416 1229Q406 1186 406 1051Q406 881 410 823Q414 789 425 780T477 766Q510 762 588 762Q676 762 727 788Q781 820 810 879T840 1012ZM573 68H575Q734 68 837 147T940 379T842 618Q792 667
732 681T580 696Q442 696 414 670Q395 639 395 545Q395 236 403 185Q409 145 434 119Q436 117 440 113Q472 81 494 75T573 68Z" />
<glyph unicode="C" glyph-name="C" horiz-adv-x="1384" d="M86 653V655Q86 942 262 1137Q381 1266 635 1331Q769 1366 930 1366Q998 1366 1071 1354T1182 1325Q1205 1320 1217 1323T1266 1341Q1271 1343 1290 1337Q1306 1331 1310 1328T1313 1321Q1260 1212 1278
1010Q1278 1004 1247 999Q1226 995 1220 996T1210 1008Q1200 1049 1174 1137Q1161 1169 1149 1186T1110 1223Q1074 1247 1000 1269T834 1292Q602 1292 440 1104Q299 931 299 643Q299 592 307 539T334 426T383 312T459 208T564 122T704 63T881 41Q982 41 1051 74T1176
164Q1239 227 1272 311Q1276 326 1288 315Q1320 297 1317 272Q1301 206 1271 131T1219 23Q1204 1 1182 -2Q1160 -3 1038 -20T854 -37Q696 -37 565 4T347 112T200 270T113 457T86 653Z" />
<glyph unicode="D" glyph-name="D" horiz-adv-x="1574" d="M1491 670V668Q1491 567 1444 449T1296 236Q1195 141 1117 97T946 25Q872 3 808 -2T621 -8Q558 -8 418 -4T264 0Q240 0 183 -1T113 -2Q111 2 109 28T109 61Q181 83 202 97T225 141Q236 311 236 901Q236
1178 229 1202Q227 1226 205 1239T115 1262Q106 1271 106 1288L104 1329Q146 1329 229 1331T354 1335Q421 1336 518 1339T666 1343Q1056 1343 1268 1155Q1491 953 1491 670ZM666 1272H664Q607 1272 530 1258T438 1231Q427 1222 424 1190Q410 980 410 739Q410 472
415 334T442 123Q448 102 471 92Q545 59 649 59Q847 59 1016 166Q1143 246 1209 383T1276 682Q1276 832 1221 946T1083 1133Q925 1272 666 1272Z" />
<glyph unicode="E" glyph-name="E" horiz-adv-x="1224" d="M438 711H569Q706 711 782 717Q874 723 898 743T942 854Q948 858 973 861T1008 862Q1007 852 999 768T991 645Q993 567 1006 459Q980 453 958 453Q947 451 940 465Q929 496 915 545Q906 587 882 603T797
625Q752 629 580 629Q470 629 444 625Q430 622 424 612Q406 576 406 360Q406 234 409 190T426 123Q447 94 506 84T694 74Q774 74 824 78T925 95T1007 135T1066 204T1112 313Q1120 315 1161 311Q1167 307 1167 295Q1164 228 1145 143T1104 10Q1091 -6 1077 -6Q1049
-6 981 -4Q859 0 606 0Q500 0 117 -14Q114 -13 113 11T113 47Q113 50 116 52T121 55Q167 63 189 72T218 90T225 117Q240 230 240 487V842Q240 1120 225 1217Q221 1239 199 1243Q188 1247 150 1255T90 1270Q88 1272 88 1278L92 1325Q97 1334 102 1335H174Q207 1335
293 1333T440 1329H639Q710 1329 845 1334T1016 1341Q1048 1341 1065 1331Q1078 1322 1079 1316T1075 1282Q1057 1181 1057 1020Q1020 1020 1008 1024T993 1038Q986 1073 983 1090T972 1134T959 1173T941 1204T917 1229T886 1245T844 1257T791 1260H649Q480 1260
438 1249Q419 1243 414 1227T408 1174Q408 1031 412 743Q412 730 419 721T438 711Z" />
<glyph unicode="F" glyph-name="F" horiz-adv-x="1126" d="M117 74H180Q199 74 205 81T215 115Q233 266 233 608V813Q233 1075 227 1161Q222 1224 204 1242T106 1276Q102 1302 109 1325Q109 1333 131 1333Q135 1333 168 1332T248 1330T332 1329H702Q956 1329 1014
1343Q1018 1345 1024 1337T1030 1321Q1029 1263 1028 1200T1027 1101T1026 1044Q1026 1029 997 1034Q977 1037 972 1039T965 1049Q946 1144 926 1182T858 1235Q819 1248 772 1252T618 1257Q498 1257 446 1245Q434 1240 428 1225T418 1169Q412 1115 409 1051T405
929T404 827T405 745T406 707Q404 698 409 692T418 686Q419 686 436 686T491 685T584 684Q687 684 809 692Q842 695 854 712T887 805Q892 810 920 815T952 817Q952 787 950 732T948 647Q948 616 954 547T961 463Q953 459 927 458T895 459Q894 463 891 475T887 491T883
506T879 522T874 535T867 548T860 558T852 568T842 575Q810 592 762 598T598 604Q490 604 420 600Q407 599 403 582T399 518V356Q399 258 410 162Q417 106 455 89T590 68Q599 68 603 62T606 49L592 -6H545Q503 -6 436 -2T326 2Q289 2 244 0T169 -4T137 -6Q120 -6
117 12Q105 56 117 74Z" />
<glyph unicode="G" glyph-name="G" horiz-adv-x="1540" d="M86 674V676Q86 970 291 1159Q404 1265 621 1325Q764 1366 940 1366Q996 1366 1072 1356T1202 1329Q1221 1322 1223 1329L1241 1360Q1245 1366 1264 1366L1305 1364Q1315 1364 1315 1350Q1324 1160 1343
1061Q1350 1027 1346 1014Q1338 1008 1323 1008H1294Q1281 1008 1274 1024Q1229 1143 1124 1217T856 1292Q653 1292 506 1163Q467 1127 434 1084T367 980T315 837T295 664Q295 396 469 227Q525 173 595 135T734 80T855 56T956 49Q1002 49 1053 63T1128 96Q1184
137 1184 362Q1184 427 1183 461T1178 525T1165 566T1142 585T1106 596Q1095 598 1041 605T975 614Q956 624 952 629Q947 638 942 668Q942 684 952 684Q1014 684 1111 680T1249 676Q1313 676 1383 680T1460 684Q1463 681 1461 647T1456 604Q1443 603 1415 599T1376
594Q1362 538 1362 86Q1362 58 1355 44T1331 14Q1311 -4 1274 -4Q1194 -4 1112 -10Q952 -23 893 -23Q504 -23 287 182Q193 269 140 394T86 674Z" />
<glyph unicode="H" glyph-name="H" horiz-adv-x="1728" d="M446 715H1042Q1289 715 1300 717Q1314 719 1318 732T1323 791V967Q1323 1135 1321 1169Q1320 1220 1295 1236T1169 1270Q1166 1273 1171 1300T1180 1331Q1216 1331 1289 1330T1399 1329Q1448 1329 1509
1335Q1573 1341 1604 1341Q1624 1341 1628 1333Q1642 1305 1642 1282Q1553 1268 1529 1254T1501 1190Q1493 1018 1493 868V500Q1493 305 1503 158Q1505 127 1514 113T1553 90T1649 74Q1652 65 1643 36T1624 6H1358Q1307 6 1270 5T1216 2T1194 0Q1178 0 1178 6V66Q1250
75 1278 86T1311 115Q1323 157 1323 410V575Q1323 604 1313 614Q1303 621 1262 623T1059 625H756Q475 625 440 618Q421 615 416 606T410 573Q410 305 416 213Q419 123 434 106Q445 94 469 84T561 61Q580 58 580 51Q580 -8 578 -10Q572 -10 455 -5T281 0Q234 -1
198 -3T145 -6T127 -8Q117 -8 113 -4Q108 0 102 24T98 53Q180 73 203 91T231 154Q240 208 240 467V842Q240 1046 236 1178Q233 1213 225 1228T188 1253T94 1274Q89 1290 104 1325Q106 1331 117 1331Q156 1331 221 1330T313 1329Q391 1329 428 1331Q446 1331 484
1334T539 1339Q542 1336 543 1307T541 1274Q476 1266 451 1253T420 1204Q410 1152 410 887Q410 744 419 726Q424 715 446 715Z" />
<glyph unicode="I" glyph-name="I" horiz-adv-x="718" d="M659 1323L674 1274Q582 1266 539 1257T482 1237T465 1204Q451 1139 451 850V440Q451 262 461 145Q464 109 475 97T512 80Q522 78 565 73T618 66Q641 58 641 53Q641 43 635 22T625 -4Q375 2 299 0Q257
0 210 -1T132 -5T98 -8Q78 -8 74 8Q63 47 66 59Q178 62 218 75T264 129Q264 131 266 162T271 222T274 317T276 463V952Q276 1161 266 1203Q256 1239 227 1249Q219 1252 205 1255Q106 1264 94 1264T82 1276Q82 1286 92 1307Q102 1325 109 1327Q125 1329 162 1329Q164
1329 231 1328T362 1327Q576 1331 629 1331Q656 1331 659 1323Z" />
<glyph unicode="J" glyph-name="J" horiz-adv-x="653" d="M586 1272L524 1264Q470 1259 454 1249T434 1210Q424 1088 424 852V592V-16Q424 -114 385 -184Q342 -263 258 -328T82 -438Q36 -465 -18 -465Q-98 -465 -164 -410Q-184 -389 -184 -369Q-184 -347 -174
-334Q-161 -319 -150 -308T-126 -287T-109 -272Q-91 -261 -68 -274Q19 -328 96 -328Q151 -328 195 -289Q220 -265 232 -225T246 -113Q254 84 254 342V758Q254 1020 250 1126Q248 1161 246 1178T236 1213T220 1237T189 1251T144 1260T76 1266Q76 1281 88 1317Q93
1331 117 1331Q133 1331 204 1330T307 1329Q354 1329 443 1333T557 1337Q570 1337 573 1327L586 1272Z" />
<glyph unicode="K" glyph-name="K" horiz-adv-x="1466" d="M244 365V877Q244 1031 240 1107T228 1207T203 1241Q176 1262 88 1268Q88 1282 93 1304T106 1331Q140 1331 209 1330T313 1329Q377 1330 431 1332T513 1335T547 1337Q561 1337 565 1329Q568 1323 570
1304T571 1276Q493 1266 444 1249Q426 1240 420 1191T414 997V727Q414 712 416 707T426 702Q429 702 433 703T442 708T453 715T468 726T484 738T503 753T524 770Q822 1016 1008 1200Q1043 1234 1033 1248Q1031 1251 1026 1251Q997 1253 909 1262L907 1317Q909 1329
920 1331Q983 1330 1042 1330T1160 1332T1262 1334T1335 1336T1368 1337Q1376 1337 1377 1335T1378 1323Q1373 1291 1370 1283T1360 1274Q1303 1265 1258 1248T1192 1218T1130 1176Q930 1030 627 766Q617 758 615 748T621 727Q676 667 764 585T972 397T1149 238Q1236
157 1284 121T1364 78Q1410 69 1444 61Q1467 55 1464 37L1448 -6Q1270 3 971 0L979 61Q990 68 1040 78Q1052 80 1053 88T1042 109Q973 174 849 289T634 487T522 592Q459 653 426 653Q414 653 414 623V440Q414 135 438 104Q445 94 455 88T490 76T528 70T584 63Q592
63 592 49L586 -6Q382 0 313 0Q276 0 186 -3T88 -6Q85 0 88 27T94 57Q102 59 137 64T193 76Q215 80 224 99T239 177T244 365Z" />
<glyph unicode="L" glyph-name="L" horiz-adv-x="1171" d="M1071 326H1073Q1079 326 1100 320T1128 309Q1138 300 1135 287Q1091 138 1073 27Q1068 0 1038 -4Q1018 -6 909 -6Q900 -6 743 -3T379 0Q313 0 139 -12Q117 -14 100 -14Q95 -8 89 16T84 49Q164 59 202
78T252 141Q266 192 266 455V874Q266 1129 256 1204Q253 1229 241 1239T196 1254T88 1257Q83 1257 80 1265T80 1282L96 1319Q98 1329 104 1329Q124 1329 162 1329T233 1328T295 1329Q297 1329 614 1341Q620 1337 624 1316T629 1280Q576 1274 549 1269T497 1252T461
1221T446 1171Q433 1045 436 811L438 561Q440 208 444 137Q447 95 483 86Q530 70 674 70Q737 70 776 72T864 84T948 117T1008 178Q1043 234 1061 315Q1063 326 1071 326Z" />
<glyph unicode="M" glyph-name="M" horiz-adv-x="1849" d="M481 39L485 -10Q296 -1 96 -4Q79 -4 74 4Q71 13 70 35T70 61Q146 71 176 94T213 182Q232 332 246 776L258 1176Q259 1212 249 1228T199 1254T76 1268Q85 1311 94 1325Q101 1335 121 1335Q143 1335 221
1332T328 1329H430Q436 1278 449 1247Q517 1092 675 797T936 330Q939 326 946 327T956 336Q1242 872 1421 1251Q1431 1273 1434 1329Q1523 1328 1635 1331T1776 1335Q1783 1330 1784 1304T1784 1272Q1682 1265 1650 1247T1616 1182Q1613 1066 1618 702Q1618 315
1620 238Q1622 198 1623 178T1632 137T1645 109T1670 93T1707 81T1763 72Q1767 71 1770 53T1774 20Q1774 4 1763 4H1616Q1455 4 1317 -8L1319 35Q1321 59 1333 61Q1398 78 1414 93T1438 160Q1444 221 1460 1126Q1462 1138 1454 1137Q1449 1137 1448 1133Q1435 1109
1371 975T1218 653T1090 383Q1044 290 1009 216T958 106T940 66Q912 10 904 4Q899 0 893 0Q881 0 868 20Q859 34 778 211L332 1128Q330 971 330 440Q330 193 342 119Q348 95 370 84T444 63Q466 60 472 56T481 39Z" />
<glyph unicode="N" glyph-name="N" horiz-adv-x="1675" d="M47 1284V1337Q235 1329 332 1329Q352 1329 358 1323Q371 1314 383 1286Q395 1263 439 1207T518 1120L1348 313Q1352 445 1352 715Q1352 1015 1341 1143Q1338 1170 1336 1183T1321 1217T1288 1243Q1268
1250 1167 1262Q1157 1265 1157 1272L1153 1329H1384Q1432 1329 1517 1333T1610 1337Q1625 1337 1628 1327L1640 1284Q1542 1263 1505 1239Q1476 1222 1464 1151T1444 872Q1438 596 1438 281Q1438 204 1441 102T1444 -6Q1441 -25 1403 -39Q1386 -46 1374 -29Q1292
92 1170 225T848 555L348 1053Q338 861 338 678Q338 215 362 137Q374 105 412 89T526 57L541 8Q542 4 536 -2T524 -8Q481 -8 394 -4T264 0Q224 0 167 -3T96 -6Q90 25 80 51Q144 68 173 84T212 118T227 174Q252 386 252 702V930Q252 1089 246 1136T215 1206Q188
1234 157 1248T63 1270Q47 1275 47 1284Z" />
<glyph unicode="O" glyph-name="O" horiz-adv-x="1603" d="M809 1366H811Q948 1366 1078 1314T1305 1172T1461 958T1520 696Q1520 522 1453 384T1288 150Q1191 54 1071 9T852 -37Q688 -37 526 32T260 217Q182 303 135 429T88 682Q88 817 145 946T317 1180Q414
1267 545 1316T809 1366ZM745 1292H743Q578 1292 438 1143Q364 1058 332 938T299 702Q299 562 346 441T479 231Q664 43 881 43Q962 43 1038 78T1178 181T1279 359T1317 608Q1317 922 1126 1128Q1059 1201 962 1246T745 1292Z" />
<glyph unicode="P" glyph-name="P" horiz-adv-x="1226" d="M94 6L88 55Q178 69 207 85T244 154Q254 234 254 477V809Q254 1006 249 1104T227 1233Q215 1257 193 1263T92 1270Q80 1270 80 1286Q80 1307 98 1337Q113 1337 197 1333T322 1329Q350 1329 469 1331T604
1333Q840 1333 1001 1212Q1055 1172 1090 1114T1137 1011T1149 930Q1149 836 1115 769T1010 631Q927 548 797 511T530 473H432Q414 473 414 418Q414 310 426 190Q429 143 443 120T498 88Q505 85 523 82T574 72T631 61Q641 60 644 58T647 49Q647 22 641 -2Q533 -2
426 -1T315 0Q218 0 106 -8Q100 -8 98 -6T94 6ZM946 913V915Q946 929 946 937T943 974T935 1024T917 1077T887 1133T842 1183T779 1227T695 1255T586 1266Q473 1266 453 1241Q435 1234 432 1194Q429 1139 425 913T420 598Q420 578 424 572T444 561Q489 543 547
543Q656 543 723 567Q813 602 879 692T946 913Z" />
<glyph unicode="Q" glyph-name="Q" horiz-adv-x="1605" d="M811 1366H813Q952 1366 1094 1316T1339 1161Q1436 1065 1479 940T1522 692Q1522 532 1460 385T1276 145Q1236 115 1198 90T1129 48T1076 21T1032 0T1004 -12Q997 -14 992 -27T989 -47Q1037 -154 1130
-237T1329 -360Q1479 -418 1595 -412Q1675 -410 1735 -397Q1755 -397 1763 -416Q1766 -427 1764 -431T1752 -447Q1746 -453 1743 -457Q1702 -470 1613 -484T1458 -498Q1350 -498 1223 -465Q1070 -428 934 -305Q865 -244 760 -92Q740 -62 714 -47T645 -18Q416 47
313 139Q273 176 237 221T165 328T108 472T86 641Q86 981 348 1198Q434 1267 563 1316T811 1366ZM750 1288H748Q621 1288 502 1190Q395 1102 346 973T297 659Q297 559 328 444T418 252Q478 172 565 118T718 46T836 27Q886 27 979 65T1141 176Q1317 369 1317 653Q1317
927 1167 1098Q1082 1195 983 1241T750 1288Z" />
<glyph unicode="R" glyph-name="R" horiz-adv-x="1359" d="M94 1268L88 1315Q86 1322 96 1329Q321 1333 385 1339Q506 1348 590 1348Q816 1348 946 1255Q1016 1206 1054 1135T1092 989Q1092 812 874 686Q854 676 860 655Q870 611 906 529T1001 356Q1077 241 1162
162T1372 23Q1396 10 1393 -6Q1392 -20 1387 -32T1378 -45Q1244 -32 1141 14T948 143Q890 200 842 276T729 475Q704 526 684 547T631 578T532 588Q460 588 434 582Q408 573 408 551Q408 313 416 156Q419 114 436 102Q445 93 472 85T540 69T594 57Q594 50 589 30T580
4Q578 0 551 0Q547 0 437 1T276 2Q233 2 190 -1T143 -4Q113 -4 111 0Q98 12 98 59Q185 78 206 97Q212 103 215 109Q242 147 242 555V797Q242 965 238 1161Q237 1195 228 1211T191 1239T94 1268ZM895 981V983Q895 1105 810 1192T590 1280Q496 1280 453 1257Q431
1248 424 1221Q407 1114 410 866Q410 775 412 729T416 675T424 662Q438 655 489 655Q614 655 688 677T811 756Q895 857 895 981Z" />
<glyph unicode="S" glyph-name="S" horiz-adv-x="1122" d="M150 -47H147Q139 -47 129 -35Q118 -14 115 39Q111 143 82 342Q73 359 88 362Q116 369 133 369Q141 369 145 364T154 344Q173 266 213 213Q264 139 358 88T551 37Q688 37 774 117T860 324Q860 430 768
496Q704 546 512 616Q392 664 321 703T205 795Q173 831 151 890T129 1001Q129 1201 301 1294Q345 1320 428 1342T602 1364Q700 1364 799 1348Q825 1341 856 1341Q878 1341 905 1382Q944 1386 956 1380Q947 1221 973 1059Q979 1042 967 1034Q953 1020 920 1012Q913
1010 907 1022Q878 1121 858 1155Q838 1189 809 1212Q778 1245 708 1267T561 1290Q446 1290 376 1224T305 1055Q305 970 360 905Q401 863 456 833T623 764Q833 687 930 604Q989 550 1013 491T1038 354Q1038 247 989 165T858 39Q796 6 689 -14T518 -35Q421 -35 254
-4Q237 0 217 -8Q194 -19 176 -35Q162 -47 150 -47Z" />
<glyph unicode="T" glyph-name="T" horiz-adv-x="1456" d="M418 8L412 53Q430 55 473 61T530 70Q573 78 592 92T618 139Q637 249 637 602V811Q637 1253 627 1253H461Q373 1253 303 1244T203 1226T162 1210Q144 1197 131 1169T94 1071Q94 1067 88 1067T76 1069Q57
1078 25 1110Q88 1243 141 1415Q153 1418 180 1411Q197 1407 199 1397Q199 1344 217 1339Q236 1334 311 1331Q373 1329 662 1329Q1057 1329 1176 1335Q1261 1338 1290 1348Q1311 1354 1327 1405Q1329 1413 1337 1413Q1360 1413 1391 1395Q1397 1392 1391 1368Q1371
1317 1361 1270T1347 1198T1337 1087Q1337 1071 1315 1071Q1298 1071 1278 1075Q1268 1078 1268 1087Q1268 1095 1270 1140T1272 1194Q1272 1222 1239 1233Q1223 1240 1150 1246T977 1253H844Q829 1253 823 1242T815 1200Q815 1192 814 1145T811 1005T809 791V586Q809
231 823 166Q833 110 868 92Q916 66 1044 55Q1054 55 1056 54T1057 47L1049 6Q1046 -6 1030 -6Q1028 -6 908 -3T729 0Q682 0 615 -2T499 -6T444 -8Q421 -8 418 8Z" />
<glyph unicode="U" glyph-name="U" horiz-adv-x="1538" d="M1493 1321L1475 1268Q1437 1260 1395 1253Q1376 1249 1368 1219Q1351 1159 1337 692Q1332 499 1311 396T1223 195Q1150 89 1021 26T754 -37Q622 -37 515 7T352 109Q218 245 215 500Q211 688 219 901Q229
1181 219 1219Q212 1246 184 1257T84 1276L86 1323Q87 1332 94 1334T123 1337Q146 1337 222 1333T319 1329Q352 1330 443 1333T588 1337Q600 1337 600 1331Q600 1282 594 1276Q493 1264 459 1249T414 1198Q399 1126 397 989Q396 954 394 860T391 682T389 537Q389
286 526 176Q636 82 829 82Q951 82 1020 117T1135 211Q1192 288 1216 401T1241 684Q1241 1122 1235 1188Q1229 1238 1195 1249T1038 1260Q1033 1260 1028 1268T1024 1284Q1027 1288 1036 1302T1049 1323Q1057 1331 1096 1331Q1101 1331 1172 1330T1274 1329Q1410
1329 1487 1335Q1500 1335 1493 1321Z" />
<glyph unicode="V" glyph-name="V" horiz-adv-x="1536" d="M1503 1266L1444 1262Q1413 1258 1397 1245Q1359 1201 1274 1020Q1224 915 1090 617T887 152Q872 116 850 82Q839 66 822 29T797 -20Q790 -35 780 -35Q742 -35 739 -18Q735 -11 664 162Q366 883 262 1094Q206
1206 189 1228Q163 1259 113 1269Q96 1272 61 1276L82 1327Q86 1337 98 1337Q214 1329 315 1329Q345 1329 405 1331T496 1333Q501 1333 503 1331T505 1321T502 1296Q499 1281 496 1276T483 1270Q427 1263 414 1250T410 1202Q452 1086 557 842Q714 477 819 258Q822
251 830 251T842 256Q904 378 1118 887Q1220 1128 1257 1237Q1263 1248 1248 1253T1190 1262L1124 1266Q1118 1266 1114 1270T1112 1282Q1122 1315 1130 1324T1153 1333Q1172 1333 1237 1331T1335 1329Q1369 1329 1421 1331T1493 1333Q1509 1333 1514 1324T1522
1282Q1522 1273 1518 1270T1503 1266Z" />
<glyph unicode="W" glyph-name="W" horiz-adv-x="2152" d="M676 -12Q637 106 569 272L227 1114Q209 1155 202 1171T182 1210T162 1237T139 1252T106 1263T61 1268Q52 1269 50 1271T47 1280Q47 1283 55 1298T68 1319Q77 1331 96 1331T180 1329T268 1327Q304 1327
376 1329T485 1331Q493 1331 498 1315T504 1280Q504 1266 492 1264Q426 1257 404 1250T385 1223Q389 1194 406 1149Q483 938 590 676T760 279Q763 271 771 269T782 274Q859 446 1049 938Q1058 958 1047 987Q1027 1044 967 1206Q953 1242 933 1251T842 1262Q837
1262 832 1266T827 1274Q836 1331 860 1331Q881 1331 948 1329T1057 1327Q1117 1327 1180 1330T1249 1333Q1260 1329 1265 1300T1262 1268Q1179 1258 1163 1247T1159 1194Q1210 1037 1316 759T1509 272Q1511 268 1514 268T1521 270T1528 279Q1835 1031 1870 1206Q1874
1234 1864 1245T1833 1260Q1818 1262 1784 1264T1735 1268Q1728 1271 1731 1284Q1734 1315 1738 1326T1755 1337Q1762 1337 1840 1334T1948 1331Q1987 1331 2041 1333T2097 1335Q2131 1335 2134 1319L2140 1274Q2140 1266 2132 1266Q2103 1267 2087 1265T2054 1256T2026
1236T2001 1199T1971 1140T1932 1056Q1927 1045 1925 1040Q1847 873 1575 180Q1571 171 1537 101T1487 -8Q1478 -31 1454 -31Q1424 -31 1409 12L1346 197Q1226 541 1106 834L842 207Q831 180 798 103T752 -10Q746 -24 737 -27Q724 -35 698 -35Q681 -35 676 -12Z"
/>
<glyph unicode="X" glyph-name="X" horiz-adv-x="1515" d="M1016 1270L1008 1331Q1022 1331 1132 1330T1264 1329Q1354 1333 1403 1333Q1409 1333 1413 1331T1420 1322T1426 1311T1431 1296T1436 1280Q1439 1271 1437 1267T1423 1262Q1345 1253 1309 1235T1212
1153Q1152 1090 1095 1027T996 913T925 827T873 761T848 729Q840 717 848 694Q1126 309 1239 172Q1294 107 1327 90T1460 59L1458 8Q1458 -1 1456 -3T1444 -6L1338 -4Q1231 -2 1145 -2Q1086 -2 1026 -5T965 -8Q944 -8 940 -2Q928 12 928 55Q928 61 938 61Q943 63
956 65T991 71T1024 76Q1053 81 1059 91T1049 123Q1026 158 891 343T717 582Q477 292 418 199Q367 123 367 98Q367 69 477 63Q493 63 496 55Q498 46 497 21T492 -8Q373 0 203 0Q122 0 82 -6Q73 -6 68 4Q64 44 70 63Q163 74 215 129Q331 251 653 631Q661 635 661
647T655 668Q638 691 558 802T389 1037T242 1231Q220 1244 195 1248T115 1253Q100 1253 100 1264Q100 1283 104 1306T119 1329Q375 1329 428 1333Q445 1334 494 1336T563 1339Q586 1339 588 1329L600 1278Q604 1262 584 1262H492Q443 1262 465 1225Q559 1072 788
774Q964 994 1069 1137Q1118 1201 1118 1225Q1114 1246 1034 1253Q1027 1254 1024 1255T1018 1260T1016 1270Z" />
<glyph unicode="Y" glyph-name="Y" horiz-adv-x="1337" d="M526 1325V1323Q526 1304 522 1286T512 1264Q500 1262 472 1259T430 1253Q394 1248 410 1223Q440 1169 486 1095T569 965T638 860T674 807Q677 804 690 787T711 764Q725 757 750 788Q930 1045 981 1130Q1028
1201 1028 1229Q1028 1256 911 1260L907 1313Q907 1333 918 1333Q939 1333 1004 1331T1114 1329Q1274 1333 1284 1333Q1313 1333 1321 1325Q1323 1316 1324 1292T1321 1260Q1247 1256 1213 1238T1137 1171Q1030 1047 932 913T799 721Q765 671 758 645T750 543V414Q750
276 756 174Q758 115 775 98Q796 78 884 68Q906 65 969 59Q969 40 952 -2Q946 -10 920 -10Q670 0 590 0Q561 0 497 -3T406 -6Q387 -6 385 2Q377 18 377 53Q377 61 383 61Q467 71 504 80T551 109Q562 124 565 176T569 362V571Q569 625 561 652T522 729Q288 1107
178 1249Q168 1263 72 1260Q60 1260 57 1268Q56 1278 56 1295T57 1319Q60 1335 70 1335Q107 1335 194 1332T305 1329Q338 1329 440 1335Q490 1339 512 1339Q526 1339 526 1325Z" />
<glyph unicode="Z" glyph-name="Z" horiz-adv-x="1499" d="M838 0H641Q484 0 333 -4T154 -8Q133 -8 111 27Q99 44 115 53L338 297Q465 442 730 762T1102 1219Q1109 1226 1103 1233T1085 1241Q973 1251 797 1251Q591 1251 459 1239Q392 1233 349 1204T268 1124Q252
1102 232 1071T198 1016T169 965T152 934L141 936Q112 943 105 948T100 965Q124 1062 248 1403Q253 1419 262 1419Q263 1419 311 1407Q309 1364 310 1350T317 1335Q422 1329 627 1329H930Q1002 1329 1077 1331T1221 1335T1311 1339H1384Q1395 1339 1393 1323Q1378
1270 1339 1229Q1105 978 840 647L395 90Q435 76 748 76Q946 76 1049 86T1190 114T1260 168Q1304 218 1382 408Q1388 420 1425 420Q1435 420 1438 418T1440 408Q1403 217 1350 43Q1321 -54 1313 -57Q1286 -68 1255 -68Q1255 -25 1253 -16T1235 -4Q1200 0 838 0Z"
/>
<glyph unicode="[" glyph-name="bracketleft" horiz-adv-x="686" d="M580 -360V-362Q580 -372 571 -393T549 -416Q316 -431 270 -420Q231 -410 219 -356Q211 -318 210 -200T212 115T215 393Q215 696 240 1333Q241 1357 252 1384T274 1419T385 1436T575 1448Q590
1448 602 1393Q605 1376 586 1374Q440 1363 418 1358Q394 1352 384 1343T369 1315Q363 1284 356 1181T340 858T330 377Q325 -232 348 -293Q354 -314 363 -322T391 -334Q428 -340 569 -340Q580 -340 580 -360Z" />
<glyph unicode="\" glyph-name="backslash" horiz-adv-x="747" d="M549 -147H547Q536 -147 529 -131T506 -57Q228 929 86 1368Q94 1375 128 1393T172 1415Q196 1418 201 1395L647 -119Q646 -132 613 -139T549 -147Z" />
<glyph unicode="]" glyph-name="bracketright" horiz-adv-x="686" d="M137 1380V1382Q137 1405 143 1412T166 1423Q271 1438 426 1438Q473 1438 479 1333Q481 1257 480 1174T477 886T475 532Q475 306 465 40T446 -303Q439 -358 422 -378T371 -401Q260 -416 119
-416Q110 -416 107 -416T101 -412T96 -403Q88 -367 88 -346Q204 -334 266 -322Q299 -314 311 -303T326 -262Q330 -226 336 -146T350 119T358 496Q358 590 358 746T359 964T358 1112T355 1241T348 1313Q346 1333 341 1341T322 1350Q292 1351 262 1351T195 1349T154
1348Q144 1348 141 1354T137 1380Z" />
<glyph unicode="^" glyph-name="asciicircum" horiz-adv-x="1126" d="M545 1350H547Q553 1350 567 1329L952 586Q965 564 965 554T950 537Q901 513 850 506L532 1157Q518 1129 480 1054T425 944T375 843T320 731T271 625T219 510Q215 503 174 515T119 537Q98 554
109 578Q123 612 494 1311Q500 1322 512 1331T533 1345T545 1350Z" />
<glyph unicode="_" glyph-name="underscore" horiz-adv-x="1064" d="M1065 -160V-266H0V-160H1065Z" />
<glyph unicode="`" glyph-name="grave" horiz-adv-x="851" d="M313 1313H315Q328 1313 344 1288Q375 1233 431 1110T502 946Q503 942 492 937T466 929T438 924Q418 945 380 993T277 1128T199 1231Q196 1235 197 1245T205 1262Q219 1273 260 1293T313 1313Z" />
<glyph unicode="a" glyph-name="a" horiz-adv-x="839" d="M258 598L152 563Q132 557 115 557Q108 557 99 566T90 584Q90 604 106 631Q133 670 216 724T346 795Q413 819 459 819Q566 819 629 745Q668 705 668 647Q668 573 665 431T662 223Q662 76 713 76Q735 76
813 102Q817 105 825 97T834 82L829 47Q829 34 817 25Q797 13 718 -6T590 -27Q526 -27 506 80Q271 -23 246 -23Q188 -23 129 20Q106 41 89 81T72 178Q72 241 160 285Q294 356 512 395Q516 422 516 543Q516 659 481 692Q468 704 435 713T367 723Q321 723 285 711Q270
701 270 623Q270 614 270 611T267 604T258 598ZM334 82H336Q375 82 463 125Q504 152 508 178Q514 259 514 309Q514 334 504 334Q322 302 262 256Q242 243 242 195Q242 139 262 111T334 82Z" />
<glyph unicode="b" glyph-name="b" horiz-adv-x="1001" d="M930 463V461Q930 304 855 201T635 20Q575 -12 489 -12Q419 -12 338 -6Q256 0 203 -10Q178 -17 162 -4Q143 22 139 92T135 418V840Q135 1107 133 1137Q128 1184 115 1207T49 1270Q26 1293 51 1313Q54
1315 116 1353T227 1417T287 1444T299 1374Q299 1371 294 1172T289 743Q289 737 298 732T313 729Q556 819 578 821Q629 823 690 801T797 733Q860 671 895 599T930 463ZM774 377V379Q774 501 688 596Q633 661 579 681T463 702Q414 702 368 689T303 662Q287 647 285
616Q279 520 279 342Q279 192 346 133Q430 57 508 57Q582 57 651 113Q716 165 745 226T774 377Z" />
<glyph unicode="c" glyph-name="c" horiz-adv-x="788" d="M549 821H551Q604 821 659 803T743 754Q758 739 758 725Q758 705 737 683T692 647Q660 631 645 639Q630 644 600 666Q514 717 446 717Q362 717 309 666Q271 627 256 569T240 422Q240 339 260 275T305 182Q347
132 399 110T496 88Q537 88 599 114T715 172Q720 174 729 169T739 160Q739 147 733 125T717 96Q696 79 638 50T530 2Q469 -18 416 -18Q359 -18 296 4T186 63Q145 96 110 167T74 326Q74 384 84 435T106 516T139 578T169 617T197 645Q226 676 281 713T379 772Q469
821 549 821Z" />
<glyph unicode="d" glyph-name="d" horiz-adv-x="1032" d="M74 340V342Q74 529 225 670Q283 723 377 767T541 811Q630 811 684 791Q691 789 699 794T707 807Q711 865 711 948Q713 1140 705 1225Q703 1248 687 1258T604 1276Q593 1278 588 1292L584 1309Q581 1321
588 1323Q735 1383 827 1438Q837 1444 854 1444Q868 1440 868 1411Q868 1372 862 1041T856 569V319Q856 164 868 102Q873 72 895 72Q925 72 987 100Q1007 108 1010 96Q1020 66 1020 37Q1020 29 1016 25T1008 19T995 16Q949 1 857 -20T750 -41Q737 -41 726 -29T711
0Q707 62 707 102Q594 48 508 14T401 -20Q293 -20 188 74Q134 125 104 200T74 340ZM449 717H446Q418 717 375 700T303 653Q270 622 250 571T229 459Q229 268 342 168Q414 106 510 106Q542 106 597 120T676 152Q691 162 696 167T702 182Q709 247 709 399T700 606Q697
620 696 625T688 638T666 655Q578 717 449 717Z" />
<glyph unicode="e" glyph-name="e" horiz-adv-x="815" d="M471 815H473Q519 815 567 793T643 741Q700 685 725 606Q783 619 788 612Q796 607 793 594Q773 539 754 535Q714 526 514 483T262 424Q248 421 248 387Q252 242 320 171T498 100Q629 100 741 201Q755 211
771 207Q775 205 774 203Q772 143 756 127Q645 33 502 -8Q468 -18 426 -18Q361 -18 301 6T212 53T166 96Q132 132 103 199T74 354Q74 481 135 583T289 750Q329 778 379 796T471 815ZM565 584V586Q565 633 514 685T401 737Q377 737 350 717Q307 687 282 621T260
487Q311 500 405 520T541 551Q565 558 565 584Z" />
<glyph unicode="f" glyph-name="f" horiz-adv-x="583" d="M580 682H526Q519 682 465 683T362 684Q354 684 351 680T345 654T342 588V213Q342 128 347 103T369 78Q376 78 424 82T481 86Q498 86 498 37Q498 10 494 5T469 0H254Q229 0 156 -5T70 -10Q62 -10 60 -7T59
6Q64 36 68 44T84 55Q106 60 118 63T143 73T161 85T174 105T182 130T186 168T188 217T188 283V643Q188 670 179 678T135 690L76 694Q71 694 65 699T61 709L80 741Q87 761 100 764Q134 776 188 784V893Q188 1025 213 1111T311 1268Q402 1363 541 1417Q610 1442 655
1442Q699 1442 743 1423T803 1378Q813 1363 813 1343Q813 1317 764 1264Q753 1251 733 1251Q728 1251 724 1252T713 1255T703 1259T690 1265T678 1272T664 1281T649 1290Q608 1315 585 1324T535 1333Q481 1333 434 1286Q390 1240 370 1134T350 809Q350 798 357
790T373 782Q401 782 446 785T526 790T563 793Q574 793 584 785T596 768Q602 753 602 702Q602 682 580 682Z" />
<glyph unicode="g" glyph-name="g" horiz-adv-x="874" d="M461 836H463Q530 836 616 793Q628 784 651 784Q668 784 747 796T848 809Q859 809 873 799T889 782Q890 778 893 752T897 719Q897 695 862 692Q859 692 831 692T765 691T688 692Q743 605 743 514Q743 408
672 318T481 180Q397 149 313 102Q295 93 295 76Q295 50 325 35T399 20Q412 20 487 22T571 25Q720 25 805 -37Q830 -54 846 -92T862 -180Q862 -228 847 -262T788 -348Q740 -406 685 -447T604 -501T537 -530Q501 -543 441 -552T336 -561Q183 -561 104 -503T25 -373Q25
-265 102 -213L256 -106Q181 -74 150 -48T119 20Q119 47 131 63Q157 87 328 170Q229 195 162 254Q119 291 96 349T72 469Q72 639 229 752Q356 836 461 836ZM606 440V442Q606 569 555 649Q529 690 483 720T373 750Q320 750 268 705Q215 663 215 559Q215 496 240
430T307 328Q389 256 459 256Q523 256 564 300T606 440ZM420 -453H422Q590 -453 678 -375Q750 -314 750 -250Q750 -191 707 -160Q646 -115 530 -115T322 -133Q290 -139 244 -182Q207 -213 189 -249T170 -311Q170 -328 181 -349T217 -395T295 -436T420 -453Z" />
<glyph unicode="h" glyph-name="h" horiz-adv-x="1052" d="M61 -10L49 23Q42 35 51 41Q75 52 87 57T115 73T135 90T149 111T159 139T163 176T166 226T166 291V1108Q166 1173 161 1199T144 1242T90 1296Q77 1308 92 1323Q118 1344 299 1446Q318 1454 328 1444Q332
1440 332 1421Q332 1358 329 1223T326 1014V713Q326 708 331 703T340 700Q347 703 435 742T555 793Q616 813 668 813Q734 813 780 787T850 713T883 611T893 487Q893 465 890 347T887 154Q887 104 900 89T975 57Q988 54 991 52T995 43V10Q995 1 993 -1T981 -4H836Q761
-4 629 -16Q618 -16 618 12Q614 40 623 45Q626 47 648 55T680 68Q708 81 717 96T731 150Q739 224 739 381Q739 512 720 570T662 659Q609 698 539 698Q447 698 346 643Q332 637 327 624T322 580V360Q322 221 334 137Q339 99 356 87T440 68Q447 68 449 60T455 18Q453
0 444 0Q168 0 78 -14Q63 -16 61 -10Z" />
<glyph unicode="i" glyph-name="i" horiz-adv-x="505" d="M299 1280H301Q340 1280 364 1252T389 1186Q389 1136 359 1106T287 1075Q250 1075 224 1101T197 1169Q197 1219 229 1249T299 1280ZM188 432L182 649Q181 655 174 659T143 668T72 682Q59 685 68 698Q79
726 83 733T94 741Q132 754 210 783T336 829Q340 831 346 831Q350 831 350 815Q332 502 332 281Q332 139 334 115Q337 91 342 83T362 76Q426 80 449 80Q454 80 460 73T465 61L459 8Q458 0 455 -2T442 -4Q413 -4 354 -2T260 0Q220 0 178 -3T108 -9L82 -12Q68 -12
66 -2Q61 12 61 45Q61 55 72 55Q129 61 147 73T174 127Q180 161 185 253T188 432Z" />
<glyph unicode="j" glyph-name="j" horiz-adv-x="458" d="M274 1284H276Q317 1284 346 1249T375 1180Q375 1136 343 1104T270 1071Q235 1071 204 1102T172 1169Q172 1219 199 1251T274 1284ZM326 346V-59Q326 -168 309 -223T252 -330Q203 -392 120 -452T-23 -532Q-61
-545 -100 -545Q-123 -545 -160 -533T-207 -504Q-223 -469 -209 -449Q-199 -434 -167 -405T-123 -375Q-110 -372 -92 -381Q-88 -382 -58 -395T-10 -414T20 -420Q64 -420 92 -397Q146 -355 154 -260Q172 -75 172 199V319Q172 547 170 584Q169 604 168 614T162 633T145
647T116 656T68 666Q63 669 64 690T72 715Q281 806 305 823Q318 833 330 829T342 803Q342 800 334 633T326 346Z" />
<glyph unicode="k" glyph-name="k" horiz-adv-x="987" d="M37 8L43 37Q46 57 57 59Q109 71 124 77T145 100Q168 177 168 635Q168 680 169 799T170 1003T166 1163Q165 1211 160 1230T139 1262Q129 1270 116 1281T93 1299T80 1311Q62 1326 72 1348Q85 1360 295 1448Q311
1452 317 1446T324 1417V1378Q325 1338 325 1269T324 1106L313 469Q313 444 326 444Q340 444 385 481Q415 504 500 581T621 698Q632 709 626 716T606 723H547Q536 723 539 737L547 778Q550 795 563 795Q792 799 922 811Q934 811 934 803Q934 778 928 764Q923 746
901 743Q806 731 731 678Q701 656 502 498Q488 486 487 477T502 449Q530 416 620 326T770 178Q845 106 877 88T987 57Q996 56 997 48T999 8Q999 -8 987 -8Q924 -8 887 -4Q852 -3 625 -6Q613 -6 610 2L602 27Q590 55 602 55Q658 63 659 75Q659 80 651 88L379 362Q342
399 322 399Q314 399 311 360Q309 330 309 211Q309 76 338 76Q345 76 379 78T424 80Q432 80 434 76T436 57Q436 25 428 6Q425 -4 408 -4Q405 -4 387 -3T334 -1T252 0Q209 0 136 -2T49 -4Q41 -4 39 -2T37 8Z" />
<glyph unicode="l" glyph-name="l" horiz-adv-x="493" d="M43 -6L45 10Q45 42 55 45Q74 56 104 63Q134 75 143 86T154 119Q172 440 172 891Q172 1080 168 1202Q167 1246 148 1257T55 1274Q50 1275 51 1282T59 1319Q62 1328 80 1331Q204 1375 328 1434Q332 1436
336 1436Q342 1434 342 1419Q317 1055 317 375Q317 269 318 215T327 126T344 81T375 72Q392 72 426 74T461 76Q474 76 471 63Q469 41 461 8Q461 0 446 0Q374 0 236 -4T53 -16Q43 -16 43 -6Z" />
<glyph unicode="m" glyph-name="m" horiz-adv-x="1556" d="M985 51V2Q684 2 602 -8Q596 -8 596 -2Q596 27 598 37Q598 48 604 51Q662 68 677 78T694 111Q709 214 709 483Q709 546 703 575T682 627Q629 682 541 682Q463 682 354 608Q333 593 330 567Q326 489 326
309Q326 244 326 212T331 148T339 104T356 82T381 69T420 63Q436 61 436 51Q436 45 434 24T430 2Q424 2 351 1T256 0Q177 0 90 -12Q86 -11 84 9T84 47Q122 58 143 70Q156 75 161 82T168 106Q178 168 178 358Q178 505 172 580Q169 603 161 609T121 623Q88 627 80
639Q77 642 73 657T72 676Q221 786 268 811Q288 823 305 823Q324 823 324 805L322 653Q337 662 383 691T472 747T547 788Q581 805 618 805Q695 805 747 769T848 662Q865 672 898 690T942 714T975 732T1007 749T1032 760T1059 772Q1126 799 1180 799Q1208 799 1244
786T1307 750Q1328 729 1341 710T1367 633T1384 489Q1386 385 1386 205Q1386 107 1395 92Q1404 78 1427 71T1520 51Q1530 51 1530 39Q1530 31 1524 10T1513 -12H1374Q1285 -12 1186 -23Q1178 -23 1174 -16Q1167 -2 1167 23Q1167 31 1174 33Q1220 50 1225 80Q1239
162 1239 354Q1239 560 1188 625Q1168 655 1137 666T1053 678Q977 678 874 621Q862 613 859 606T856 582Q854 479 856 323T864 115Q867 92 882 85T975 68Q985 68 985 51Z" />
<glyph unicode="n" glyph-name="n" horiz-adv-x="1038" d="M72 2L76 45Q127 64 146 81T170 137Q184 224 184 420Q184 499 178 610Q178 627 161 636T76 662Q68 672 67 673Q66 680 72 700Q72 709 90 715Q247 792 279 815Q288 821 301 821Q309 821 315 817T322 807Q326
737 326 698Q326 680 336 680Q439 739 516 772Q576 801 631 801Q711 801 770 756Q847 696 860 553Q864 510 864 373Q864 285 865 192T866 88Q866 68 874 68T902 69T946 73T983 76Q993 76 993 55Q993 38 985 6Q981 -4 969 -4Q864 -4 769 -8T647 -12Q625 -12 623
-4L612 37Q659 53 677 71T702 131Q715 204 715 414Q715 510 707 555T666 635Q618 686 528 686Q493 686 443 669T356 631Q337 615 334 582Q330 510 330 106Q330 86 346 79T440 59Q456 57 453 45L440 0H266Q220 0 157 -5T78 -10Q72 -10 72 2Z" />
<glyph unicode="o" glyph-name="o" horiz-adv-x="978" d="M524 819H526Q583 819 646 793T769 717T866 586T905 403Q905 331 885 267T836 163T783 101T745 70Q600 -20 471 -20Q402 -20 308 19T160 129Q117 185 96 257T74 391Q74 454 96 521T156 637Q211 708 293
754Q344 782 411 800T524 819ZM436 741H434Q372 741 330 694Q252 617 252 422Q252 261 352 152Q440 57 545 57Q568 57 597 66T645 94Q733 178 733 336Q733 436 703 525T610 670Q578 700 531 720T436 741Z" />
<glyph unicode="p" glyph-name="p" horiz-adv-x="1019" d="M31 -520L16 -473Q57 -468 84 -456T125 -424T144 -389T154 -348Q170 -200 170 125V350Q170 561 156 612Q153 629 139 636T78 645Q70 645 62 656T51 690Q113 745 268 846Q288 861 307 858Q315 856 315
846V705Q569 811 604 811Q659 811 718 789T823 723Q946 614 946 430Q946 350 907 270T811 139Q780 111 704 67T553 -6Q522 -16 487 -16Q408 -16 338 4Q333 6 328 -1T322 -18Q315 -53 315 -242Q315 -329 320 -368T333 -418T362 -430Q432 -434 479 -434Q490 -434
492 -437T492 -449L481 -483Q478 -499 475 -502T459 -506Q441 -507 263 -516T39 -526Q34 -526 31 -520ZM797 365V367Q797 507 709 602Q621 702 504 702Q458 702 404 683T319 637Q311 632 311 590V463Q311 330 330 178Q333 154 354 141Q439 86 549 86Q632 86 702
137Q742 166 769 224T797 365Z" />
<glyph unicode="q" glyph-name="q" horiz-adv-x="985" d="M868 811H870Q874 811 874 799Q846 540 846 184V-41Q846 -313 858 -403Q860 -424 881 -424Q937 -416 971 -416Q977 -415 984 -421T991 -432Q991 -478 985 -504Q784 -504 541 -532Q539 -528 534 -521T526
-505T520 -489Q517 -485 521 -478T530 -469Q541 -467 583 -457T651 -442Q666 -439 672 -434T680 -416Q696 -264 696 -82V35Q696 40 688 44T672 45Q485 -25 432 -25Q370 -25 304 2T199 61Q151 101 113 179T74 350Q74 507 193 643Q225 679 315 731T477 801Q527 813
551 813Q596 813 651 801T727 776Q756 762 778 774Q854 811 868 811ZM473 725H471Q387 725 322 655Q292 620 270 557T248 422Q248 327 276 263T362 147Q405 108 458 90T543 72Q559 72 601 85T666 111Q692 125 696 154Q700 202 700 322Q700 403 699 491T698 586Q698
624 672 653Q604 725 473 725Z" />
<glyph unicode="r" glyph-name="r" horiz-adv-x="718" d="M92 14L111 61Q148 75 158 82T172 109Q176 133 176 367V551Q176 590 163 604T92 635Q81 639 74 654T70 680Q109 706 186 752T295 819Q311 827 319 827Q326 827 331 818T334 795Q333 777 331 746T328 687T328
633Q346 642 387 672T471 734T520 772Q559 801 580 801Q620 801 656 770T692 705Q692 683 667 648T623 596Q597 580 588 580Q572 580 561 594Q527 641 483 641Q424 641 346 571Q335 562 332 535T328 436V180Q328 105 336 92Q346 76 373 78L483 82Q491 82 496 76T500
63L487 0H217Q186 0 144 -2T98 -4Q83 -4 92 14Z" />
<glyph unicode="s" glyph-name="s" horiz-adv-x="720" d="M655 205V203Q655 105 557 37Q475 -18 350 -18Q273 -18 174 0Q151 5 137 5T104 -4Q92 -4 86 0Q79 7 82 23Q95 119 82 248Q86 260 88 262Q103 269 137 276Q168 185 227 117Q296 43 367 43Q408 43 451 76T494
160Q494 186 484 210T462 250T425 284T388 310T345 332T311 350Q307 352 289 362T258 379T226 399T192 425T162 454T135 490T118 531T111 578Q111 675 201 750Q241 781 289 797T377 813Q402 813 446 810T512 807Q539 807 547 811Q553 814 563 809Q569 805 569 795Q572
716 608 590Q608 585 601 578T590 571Q564 571 554 575T530 600Q515 628 503 647T467 692T413 733T344 748Q311 748 283 720T254 641Q254 608 266 582T307 532T357 496T422 461Q424 460 447 449T482 432T519 411T559 384T595 351T626 310T646 262T655 205Z" />
<glyph unicode="t" glyph-name="t" horiz-adv-x="645" d="M317 946H319Q324 946 324 934Q324 920 319 854T313 780Q366 780 468 785T604 791Q619 791 623 786T627 768Q627 740 614 698Q610 680 584 680Q563 679 472 678T319 674Q310 674 307 645Q303 584 303 225Q303
158 343 122T455 86Q490 86 517 96T584 131Q597 139 600 129Q606 108 606 90Q606 75 592 68Q540 38 510 23T431 -7T336 -23Q300 -23 255 -7T180 43Q160 68 154 100T152 193Q154 245 156 429T160 643Q161 653 155 662T141 672Q113 674 57 674Q53 676 48 684T47 696Q161
798 295 932Q306 946 317 946Z" />
<glyph unicode="u" glyph-name="u" horiz-adv-x="1026" d="M295 815H297Q313 815 319 782Q324 750 317 639Q305 351 305 229Q305 163 359 128T471 92Q567 95 666 160Q684 174 686 203Q700 310 700 455Q700 634 680 670Q672 682 653 689T573 713Q560 716 557 725Q549
749 549 764Q549 770 557 770Q561 771 607 777T717 789T819 795Q846 795 852 770Q856 735 854 680Q853 665 851 621T848 529T846 424V225Q846 165 856 100Q859 87 872 90Q911 97 979 113Q984 115 992 108T999 94Q988 49 983 37T971 25Q894 18 721 -25Q700 -25 692
-14Q678 3 678 12L682 100Q659 89 627 73T555 36T498 6Q438 -25 369 -25Q244 -25 182 72Q158 110 158 203Q158 326 160 466T162 623Q162 649 150 663T82 702Q66 713 63 723Q62 728 61 735Q60 751 62 756T74 764Q83 766 183 790T295 815Z" />
<glyph unicode="v" glyph-name="v" horiz-adv-x="833" d="M389 786V766Q389 747 375 741Q303 704 287 690Q276 676 295 614Q399 292 436 217Q439 208 444 210T455 221Q570 453 612 582Q643 660 643 680Q645 697 624 709T549 733Q539 736 553 766Q559 785 571 788Q608
788 682 791T784 795Q799 795 809 784Q818 770 821 762Q827 748 817 735Q702 584 483 115Q443 27 438 6Q432 -13 422 -16Q398 -23 379 -23Q365 -23 348 20Q340 40 312 119T236 328T150 565Q114 661 98 683Q77 712 31 725Q30 725 35 739T46 769T57 784Q291 784 377
795Q387 795 389 786Z" />
<glyph unicode="w" glyph-name="w" horiz-adv-x="1345" d="M367 776L379 737Q318 725 306 712T303 659Q323 576 467 217Q469 210 475 210T483 215Q584 437 635 559Q643 577 633 616Q610 687 594 702T510 729Q510 747 520 770Q523 786 543 786Q711 783 852 791Q855
736 844 729Q789 718 776 708T772 670Q853 412 930 209Q932 203 938 203T948 209Q978 273 1025 386T1096 567Q1132 679 1130 688Q1130 714 1006 731Q1006 741 1012 761T1022 784Q1208 787 1239 791Q1309 795 1311 795Q1322 790 1323 782V756Q1323 745 1319 741T1296
729Q1275 719 1261 700T1219 627Q1199 586 1112 395T1004 158Q943 23 934 -2Q926 -27 881 -27Q868 -27 862 -23T852 -4Q753 288 682 461Q680 470 674 469Q671 469 670 465Q523 149 461 -8Q453 -27 438 -27Q420 -27 412 -25Q392 -17 385 10Q295 267 152 614Q126
679 106 698T37 727Q27 730 29 739L43 772Q45 786 57 786Q111 786 205 789T348 793Q358 793 361 790T367 776Z" />
<glyph unicode="x" glyph-name="x" horiz-adv-x="888" d="M51 743V770Q51 786 61 786Q113 784 217 784Q244 784 304 786T401 788Q405 782 402 759T393 731Q353 719 348 708T358 668Q391 599 471 483Q625 656 625 696Q625 709 611 716T553 733Q553 739 563 760T578
788Q609 788 754 793Q846 799 860 799Q866 799 867 796T866 780Q856 734 838 731Q783 715 727 659Q600 530 514 430Q508 421 516 406Q518 403 533 377T557 335T586 289T620 235T656 185T696 135Q713 113 740 98T788 76T856 57Q877 54 870 37Q858 16 846 4Q838 -6
825 -6Q672 3 631 2Q589 2 534 -2T473 -6Q446 32 446 49Q447 50 455 52T469 57T483 62T498 69T510 77T518 86T520 96Q520 115 471 200T397 317Q355 271 303 199T252 96Q252 83 269 69T311 47Q316 42 316 27T311 6Q308 0 297 0Q207 0 78 -6Q68 -6 63 0Q61 3 59 8T52
21T45 35Q41 46 55 63Q60 67 80 88T119 125Q221 222 354 365Q365 379 346 408Q235 599 190 652T68 727Q51 735 51 743Z" />
<glyph unicode="y" glyph-name="y" horiz-adv-x="884" d="M575 739V741Q575 766 584 784Q721 784 776 793Q813 795 846 795Q860 795 864 788Q868 783 874 761T881 735Q851 725 831 713T792 674T761 627T723 555Q541 206 432 -59Q316 -358 297 -428Q285 -472 285
-516Q285 -532 279 -539Q261 -551 236 -551Q177 -551 143 -520Q114 -494 135 -455L158 -413Q181 -371 208 -320T266 -212T317 -114T342 -61Q351 -24 340 16Q236 348 129 639Q114 678 100 690T45 713Q29 720 29 727Q29 730 30 734T34 748T39 768Q41 774 43 777T48
782T54 784T63 786Q145 786 240 790T362 795Q382 795 385 788Q400 751 397 737Q319 714 304 698T301 631Q330 528 378 376T453 170Q575 393 655 614Q674 666 663 684T584 721Q575 723 575 739Z" />
<glyph unicode="z" glyph-name="z" horiz-adv-x="870" d="M612 653H512Q312 653 225 647Q216 647 209 646T194 640T182 632T172 621T163 608T154 592T146 574T137 553T127 530Q121 510 111 510Q106 510 88 519T63 535Q53 549 59 567Q135 726 207 854Q224 854 244
842Q250 839 250 829Q250 825 249 811T248 788Q248 774 297 774Q668 774 780 786Q793 787 807 789T825 791T839 778T850 762Q848 754 812 712T723 618Q683 579 549 428T326 170Q318 161 316 152T319 139Q356 124 561 127Q669 127 727 139Q753 145 782 205Q800 240
807 240T829 225T848 201Q857 188 850 174Q840 158 796 62T719 -117Q701 -113 682 -98Q674 -92 674 -84Q674 -53 686 -14Q653 2 266 0Q215 0 176 -2T119 -6T100 -8Q88 -8 84 -4Q66 5 53 37Q367 313 612 614Q622 626 623 639T612 653Z" />
<glyph unicode="{" glyph-name="braceleft" horiz-adv-x="686" d="M557 -440H555Q391 -440 303 -362T215 -127Q215 -85 240 67T266 262Q266 360 233 407T115 485Q90 495 75 513T59 545Q59 557 68 561Q266 604 266 762Q266 802 246 951T225 1122Q225 1301 362 1391Q470
1462 588 1462Q600 1462 600 1452Q600 1419 588 1411Q575 1401 539 1391Q452 1372 403 1312T354 1165Q354 1103 380 977T406 799Q406 724 348 656T201 543Q321 485 363 416T406 246Q406 210 394 150T368 32T352 -35Q338 -111 338 -168Q338 -247 422 -312T578 -381Q588
-381 595 -387T602 -399Q602 -409 586 -424T557 -440Z" />
<glyph unicode="|" glyph-name="bar" horiz-adv-x="569" d="M215 1597H352V-532H215V1597Z" />
<glyph unicode="}" glyph-name="braceright" horiz-adv-x="686" d="M129 1462H131Q295 1462 384 1384T473 1151Q473 1108 448 955T422 760Q422 662 455 613T573 537Q598 528 613 509T629 477Q629 463 621 463Q422 419 422 260Q422 221 442 72T463 -100Q463 -278
328 -369Q218 -440 100 -440Q88 -440 88 -430Q88 -395 100 -387Q126 -373 150 -369Q239 -350 287 -291T336 -143Q336 -79 311 46T285 223Q285 298 343 366T489 479Q371 539 328 608T285 778Q285 826 310 939T336 1057Q352 1144 352 1190Q352 1276 273 1338T111
1403Q101 1403 94 1409T86 1421Q86 1431 102 1446T129 1462Z" />
<glyph unicode="~" glyph-name="asciitilde" horiz-adv-x="1267" d="M424 651H426Q456 651 485 644T536 628T585 600T628 569T672 533T713 498Q788 436 827 417T899 397Q948 397 971 454T995 631Q995 645 1027 637Q1050 632 1100 614Q1103 461 1047 368T866 276Q814
276 750 318T596 444Q489 537 410 537Q372 537 344 517T302 463T281 389T274 303Q266 291 188 291Q178 291 174 296T170 315Q170 377 182 432T222 539T301 621T424 651Z" />
</font>
</defs>
</svg>
